<?xml version="1.0" standalone="no"?><!DOCTYPE svg PUBLIC "-//W3C//DTD SVG 1.1//EN" "http://www.w3.org/Graphics/SVG/1.1/DTD/svg11.dtd"><svg t="1713861903036" class="icon" viewBox="0 0 1024 1024" version="1.1" xmlns="http://www.w3.org/2000/svg" p-id="10642" xmlns:xlink="http://www.w3.org/1999/xlink" width="40" height="40"><path d="M819.363 287.195c77.039 0 139.491 62.46 139.491 139.508s-62.452 139.509-139.491 139.509c-77.038 0-139.49-62.461-139.49-139.509s62.452-139.508 139.49-139.508z" fill="#4fc3f7" p-id="10643"></path><path d="M65.508 472.34h753.491v93.26H65.508v-93.26zM512.029 161.637c61.631 0 111.592 49.968 111.592 111.606 0 61.639-49.961 111.607-111.592 111.607s-111.593-49.968-111.593-111.607c0-61.638 49.963-111.606 111.593-111.606z" fill="#4fc3f7" p-id="10644"></path><path d="M107.506 329.047h404.523v55.803H107.506v-55.803zM595.723 864.648c61.631 0 111.593-49.968 111.593-111.606 0-61.639-49.962-111.607-111.593-111.607s-111.592 49.968-111.592 111.607c0 61.638 49.961 111.606 111.592 111.606z" fill="#4fc3f7" p-id="10645"></path><path d="M65.659 697.238h544.449v-55.803H65.659v55.803z" fill="#4fc3f7" p-id="10646"></path></svg>