<?xml version="1.0" standalone="no"?><!DOCTYPE svg PUBLIC "-//W3C//DTD SVG 1.1//EN" "http://www.w3.org/Graphics/SVG/1.1/DTD/svg11.dtd"><svg t="1713862524382" class="icon" viewBox="0 0 1130 1024" version="1.1" xmlns="http://www.w3.org/2000/svg" p-id="11939" xmlns:xlink="http://www.w3.org/1999/xlink" width="44.140625" height="40"><path d="M1029.013 675.328H104.32c-52.757 0-93.099-40.341-93.099-93.099V104.363c0-52.758 40.342-93.099 93.099-93.099h927.787c52.757 0 93.098 40.341 93.098 93.099v477.866c-3.093 49.643-43.434 93.099-96.192 93.099zM104.32 73.323c-18.624 0-31.04 12.416-31.04 31.04v477.866c0 18.624 12.416 31.04 31.04 31.04h927.787c18.624 0 31.04-12.416 31.04-31.04V104.363c0-18.624-12.416-31.04-31.019-31.04H104.32z" p-id="11940" fill="#b28a90"></path><path d="M973.163 194.347H734.229c-18.624 0-31.04-12.416-31.04-31.019 0-18.624 12.416-31.04 31.04-31.04h238.934c18.624 0 31.04 12.416 31.04 31.04 0 18.603-15.531 31.019-31.04 31.019z m-723.008 809.898c-6.187 0-12.416-3.114-18.624-6.208-12.395-9.301-15.51-31.04-6.187-43.434 15.51-18.624 31.019-43.456 24.81-62.08 0-6.187-6.186-9.302-9.3-15.51-9.323-12.416-21.718-27.925-21.718-52.757 0-49.643 34.133-80.661 43.435-83.776 12.416-9.301 34.133-6.187 43.434 6.208 9.323 12.416 6.208 34.133-6.186 43.435 0 0-18.624 12.416-18.624 34.133 0 3.115 0 6.208 9.301 12.416 6.208 9.323 15.51 21.717 21.717 37.248 9.323 34.133-3.093 74.453-34.133 117.91-9.301 9.3-18.624 12.415-27.925 12.415z m285.482 0c-6.208 0-12.416-3.114-18.624-6.208-12.416-9.301-15.509-31.04-6.186-43.434 15.509-18.624 31.018-43.456 24.81-62.08 0-6.187-3.114-9.302-9.301-15.51-9.323-12.416-21.739-27.925-21.739-52.757 0-49.643 34.134-80.661 43.456-83.776 12.416-9.301 34.134-6.187 43.435 6.208 9.301 12.416 6.208 34.133-6.187 43.435 0 0-18.645 12.416-18.645 34.133 0 3.115 0 6.208 9.323 12.416 6.186 9.323 15.509 21.717 21.717 37.248 9.301 34.133-3.093 74.453-34.133 117.91-9.302 9.3-18.624 12.415-27.926 12.415z m285.483 0c-6.208 0-12.416-3.114-18.624-6.208-12.416-9.301-15.51-31.04-6.187-43.434 15.488-18.624 31.019-43.456 24.811-62.08 0-6.187-3.115-9.302-9.323-15.51-9.301-12.416-21.717-27.925-21.717-52.757 0-49.643 34.133-80.661 43.456-83.776 12.395-9.301 34.133-6.187 43.435 6.208 9.301 12.416 6.186 34.133-6.208 43.435 0 0-18.624 12.416-18.624 34.133 0 3.115 0 6.208 9.322 12.416 6.187 9.323 15.51 21.717 21.718 37.248 9.301 34.133-3.115 74.453-34.134 117.91-9.322 9.3-18.624 12.415-27.946 12.415zM42.24 371.221h1020.907v62.08H42.26z" p-id="11941" fill="#b28a90"></path></svg>