<?xml version="1.0" standalone="no"?><!DOCTYPE svg PUBLIC "-//W3C//DTD SVG 1.1//EN" "http://www.w3.org/Graphics/SVG/1.1/DTD/svg11.dtd"><svg t="1713862584524" class="icon" viewBox="0 0 1024 1024" version="1.1" xmlns="http://www.w3.org/2000/svg" p-id="17828" xmlns:xlink="http://www.w3.org/1999/xlink" width="40" height="40"><path d="M795.8528 667.6992m-171.6224 0a171.6224 171.6224 0 1 0 343.2448 0 171.6224 171.6224 0 1 0-343.2448 0Z" fill="#CAE2FF" p-id="17829"></path><path d="M232.8064 667.6992m-171.6224 0a171.6224 171.6224 0 1 0 343.2448 0 171.6224 171.6224 0 1 0-343.2448 0Z" fill="#CAE2FF" p-id="17830"></path><path d="M960.1536 549.888c-0.1536-0.6144-0.256-1.2288-0.4608-1.8944-2.3552-7.68-57.8048-189.3376-92.7232-279.296-33.9968-87.6032-117.8112-100.352-159.744-94.7712h-50.176c-16.9472 0-30.72 13.7728-30.72 30.72s13.7728 30.72 30.72 30.72h52.3776c1.5872 0 3.1744-0.1024 4.7616-0.3584 2.816-0.4608 69.8368-10.1376 95.488 55.9616 19.1488 49.3056 45.3632 129.3312 64.768 190.3616-24.1664-10.24-50.7392-15.9232-78.6432-15.9232-80.0256 0-149.2992 46.6944-182.1184 114.2272-22.784-21.0944-56.1152-40.8576-101.376-40.8576-43.1616 0-74.5472 18.7392-96.2048 39.8336C383.0784 511.6416 314.112 465.408 234.496 465.408c-26.368 0-51.5584 5.12-74.7008 14.336C179.2 418.8672 205.1584 339.8144 224.1024 290.9184c24.832-64.0512 88.5248-56.9344 95.488-55.9616 1.5872 0.256 3.1744 0.3584 4.7616 0.3584h52.3776c16.9472 0 30.72-13.7728 30.72-30.72s-13.7728-30.72-30.72-30.72h-50.176c-41.8816-5.5808-125.7472 7.2192-159.744 94.7712-31.9488 82.4832-81.2032 241.8176-91.0336 273.8176-27.2384 34.4576-43.6224 77.9776-43.6224 125.2352 0 111.5648 90.7776 202.3424 202.3424 202.3424s202.3424-90.7776 202.3424-202.3424c0-4.8128-0.2048-9.5744-0.5632-14.2848 7.5776-15.0016 31.2832-53.1968 75.9808-53.1968 47.4624 0 74.1888 38.7072 81.8688 51.8144-0.4096 5.2224-0.6656 10.4448-0.6656 15.7184 0 111.5648 90.7776 202.3424 202.3424 202.3424s202.3424-90.7776 202.3424-202.3424c0.0512-43.9808-14.08-84.6848-37.9904-117.8624zM234.5472 808.6016c-77.6704 0-140.9024-63.1808-140.9024-140.9024s63.1808-140.9024 140.9024-140.9024 140.9024 63.1808 140.9024 140.9024-63.232 140.9024-140.9024 140.9024z m561.3056 0c-77.6704 0-140.9024-63.1808-140.9024-140.9024s63.1808-140.9024 140.9024-140.9024 140.9024 63.1808 140.9024 140.9024-63.232 140.9024-140.9024 140.9024z" fill="#5866D2" p-id="17831"></path></svg>