<?xml version="1.0" standalone="no"?><!DOCTYPE svg PUBLIC "-//W3C//DTD SVG 1.1//EN" "http://www.w3.org/Graphics/SVG/1.1/DTD/svg11.dtd"><svg t="1713862634312" class="icon" viewBox="0 0 1025 1024" version="1.1" xmlns="http://www.w3.org/2000/svg" p-id="20229" xmlns:xlink="http://www.w3.org/1999/xlink" width="40.0390625" height="40"><path d="M541.013333 522.24c0 5.12 3.413333 10.24 6.826667 11.946667l426.666667 247.466666 1.706666 1.706667c20.48 11.946667 35.84 32.426667 42.666667 54.613333 3.413333 8.533333 5.12 18.773333 5.12 29.013334v5.12c0 56.32-44.373333 102.4-98.986667 102.4h-826.026666c-54.613333 0-98.986667-46.08-98.986667-102.4 0-35.84 18.773333-68.266667 46.08-87.04l10.24-6.826667 389.12-228.693333c3.413333-1.706667 8.533333-1.706667 11.946667 3.413333l5.12 10.24c1.706667 3.413333 1.706667 10.24-3.413334 11.946667l-308.906666 186.026666-83.626667 51.2c-20.48 11.946667-34.133333 34.133333-34.133333 58.026667 0 37.546667 30.72 68.266667 68.266666 68.266667h820.906667c37.546667 0 68.266667-30.72 68.266667-68.266667 0-25.6-13.653333-47.786667-34.133334-59.733333l-64.853333-37.546667-377.173333-223.573333c-3.413333-1.706667-6.826667-8.533333-6.826667-13.653334v-6.826666-27.306667c0-20.48 6.826667-27.306667 17.066667-34.133333 8.533333-5.12 17.066667-11.946667 23.893333-20.48 6.826667-8.533333 10.24-18.773333 10.24-32.426667 0-10.24-8.533333-52.906667-56.32-52.906667s-59.733333 39.253333-59.733333 51.2c0 6.826667-6.826667 13.653333-17.066667 13.653334s-15.36-8.533333-15.36-15.36c0-35.84 32.426667-85.333333 92.16-85.333334 68.266667 0 88.746667 54.613333 88.746667 88.746667 0 18.773333-3.413333 32.426667-11.946667 47.786667-8.533333 15.36-20.48 22.186667-30.72 29.013333-3.413333 3.413333-10.24 6.826667-11.946667 8.533333l5.12 22.186667z" fill="#a6bacc" p-id="20230"></path></svg>