<?xml version="1.0" standalone="no"?><!DOCTYPE svg PUBLIC "-//W3C//DTD SVG 1.1//EN" "http://www.w3.org/Graphics/SVG/1.1/DTD/svg11.dtd"><svg t="1713862733736" class="icon" viewBox="0 0 1024 1024" version="1.1" xmlns="http://www.w3.org/2000/svg" p-id="23474" xmlns:xlink="http://www.w3.org/1999/xlink" width="40" height="40"><path d="M772.6625 260.429167c80.666667-4.725 149.883333 56.929167 154.6 137.595833 4.729167 80.666667-56.925 149.879167-137.591667 154.604167s-149.883333-56.929167-154.6-137.595834c-4.729167-80.666667 56.925-149.879167 137.591667-154.604166z m-189.679167 276.4875c-9.095833-13.816667-2.3625-34.483333 15.233334-45.941667 17.479167-11.575 39.095833-9.6875 48.308333 4.254167 9.095833 13.816667 2.3625 34.4875-15.2375 45.945833-17.483333 11.570833-39.091667 9.683333-48.304167-4.258333z m339.9125-320.779167c13.345833 9.920833 13.941667 31.654167 1.420834 48.425-12.520833 16.8875-33.425 22.441667-46.775 12.516667-13.345833-9.920833-13.933333-31.654167-1.416667-48.425 12.520833-16.8875 33.425-22.4375 46.770833-12.516667z m89.175 135.591667c3.775 16.179167-9.570833 33.1875-30.004166 38.029166-20.429167 4.841667-40.033333-4.370833-43.933334-20.433333-3.779167-16.179167 9.566667-33.1875 30-38.029167 20.433333-4.845833 40.041667 4.370833 43.9375 20.433334z m-18.779166 161.2125c-7.4375 14.883333-28.7 19.254167-47.479167 9.808333-18.783333-9.45-27.870833-29.058333-20.433333-43.9375 7.4375-14.879167 28.704167-19.25 47.479166-9.804167 18.779167 9.45 27.875 29.054167 20.433334 43.933334z m-118.108334 111.379166c-15.233333 6.616667-34.366667-3.6625-42.633333-22.9125s-2.716667-40.158333 12.516667-46.775c15.233333-6.6125 34.370833 3.6625 42.633333 22.916667 8.266667 19.25 2.716667 40.154167-12.516667 46.770833z m-162.045833 9.445834c-15.941667-4.725-23.975-24.916667-17.954167-45s23.7375-32.479167 39.679167-27.754167c15.945833 4.725 23.979167 24.916667 17.954167 45-6.020833 20.083333-23.7375 32.479167-39.679167 27.754167z m-167.716667-254.875c1.891667-16.5375 20.433333-27.875 41.220834-25.5125 20.791667 2.479167 36.141667 17.833333 34.254166 34.254166-1.8875 16.533333-20.433333 27.870833-41.220833 25.5125-20.783333-2.483333-36.141667-17.8375-34.254167-34.254166z m72.879167-145.0375c12.045833-11.3375 33.541667-8.266667 47.95 6.966666 14.4125 15.2375 16.3 36.85 4.254167 48.308334-12.054167 11.458333-33.545833 8.266667-47.958334-6.966667-14.404167-15.2375-16.295833-36.85-4.245833-48.308333z m149.05-64.366667c16.533333-0.945833 31.0625 15.233333 32.241667 36.141667 1.183333 20.904167-11.216667 38.7375-27.754167 39.683333-16.5375 0.945833-31.0625-15.2375-32.241667-36.141667s11.216667-38.741667 27.754167-39.683333z" fill="#FFDB10" p-id="23475"></path><path d="M656.091667 274.245833c9.808333 6.141667 5.7875 34.25 15.120833 40.866667 198.770833 141.258333 272 387.275 163.579167 565.029167l-0.354167-0.2375c26.570833-42.6375 3.191667-105.116667-52.204167-139.604167-53.2625-33.1875-116.691667-28.345833-145.154166 9.920833 21.966667-42.4-1.770833-101.458333-55.041667-134.641666-29.525-18.425-62.120833-25.041667-90.1125-20.908334L320.3125 871.166667l0.116667 0.116666c-7.558333 12.045833-9.45 26.104167-6.495834 38.975 2.95 12.875 10.866667 24.566667 22.9125 32.129167s26.104167 9.45 38.975 6.495833a51.416667 51.416667 0 0 0 32.125-22.9125l48.658334 30.354167c-15.945833 25.508333-40.629167 42.166667-67.795834 48.425s-56.691667 2.241667-82.204166-13.704167c-25.5125-15.941667-42.166667-40.625-48.425-67.791666s-2.245833-56.691667 13.7-82.204167l0.116666 0.1125 169.958334-273.770833c-7.679167-28.583333-28.7-56.933333-59.883334-76.3-53.266667-33.1875-116.691667-28.345833-145.154166 9.920833 21.966667-42.4-1.770833-101.454167-55.0375-134.641667-54.204167-33.779167-119.045833-28.225-146.683334 12.045834C147.041667 205.979167 396.370833 163.816667 608.85 276.845833c11.3375 6.025 36.141667-9.329167 47.241667-2.3625v-0.2375z" fill="#AB9FCC" p-id="23476"></path></svg>