<?xml version="1.0" standalone="no"?><!DOCTYPE svg PUBLIC "-//W3C//DTD SVG 1.1//EN" "http://www.w3.org/Graphics/SVG/1.1/DTD/svg11.dtd"><svg t="1713860516763" class="icon" viewBox="0 0 1024 1024" version="1.1" xmlns="http://www.w3.org/2000/svg" p-id="32619" xmlns:xlink="http://www.w3.org/1999/xlink" width="40" height="40"><path d="M816.608 209.396l10.84 25.07c24.453 57.27 43.072 106.111 56.843 149.562l54.376-0.028c17.673 0 32 14.327 32 32 0 16.634-12.691 30.303-28.919 31.854l-3.081 0.146-36.651 0.023c10.779 46.385 15.317 87.293 15.317 127.977 0 79.014-5.972 166.763-17.895 263.285-3.841 31.093-29.354 54.756-60.262 56.6l-3.89 0.115H740.9c-29.236 0-54.577-19.776-61.904-47.754l-0.853-3.695-11.05-55.218H356.885l-11.028 55.218c-5.734 28.67-30.096 49.64-58.967 51.338l-3.79 0.111h-94.135c-32.815 0-60.424-24.588-64.209-57.184l-3.605-32.23-3.205-31.153c-7.014-71.435-10.76-134.088-11.23-188.011l-0.05-11.422c0-38.7 5.014-79.514 16.858-127.983L85.334 448c-17.674 0-32-14.327-32-32 0-16.634 12.69-30.303 28.918-31.854l3.081-0.146 56.371 0.027c15.619-48.973 37.097-105.626 65.669-173.728 6.837-16.297 25.59-23.965 41.888-17.128 16.297 6.838 23.965 25.592 17.128 41.888l-8.683 20.876-9.721 23.857c-15.643 38.858-28.51 73.268-38.95 104.216l607.942 0.016c-14.41-42.567-33.723-91.198-59.002-148.974-7.084-16.19 0.298-35.06 16.49-42.144 16.19-7.084 35.059 0.299 42.143 16.49z m19.551 238.613l-646.616 0.012c-6.182 23.224-10.678 44.325-13.728 63.982L298.667 512v64h-128c0 68.749 5.877 153.939 17.662 255.434a0.64 0.64 0 0 0 0.335 0.49l0.3 0.076H283.1l21.333-106.667h415.134L740.9 832h94.385a0.64 0.64 0 0 0 0.636-0.561c11.616-94.04 17.412-179.2 17.412-255.439h-128v-64l123.587 0.004c-2.773-20.14-6.944-41.23-12.76-63.995zM374.551 108.955c15.444 6.178 23.422 23.038 18.835 38.68l-1.008 2.916-21.333 53.334c-6.564 16.409-25.187 24.39-41.596 17.826-15.444-6.177-23.422-23.037-18.835-38.68l1.008-2.916 21.333-53.333c6.564-16.409 25.187-24.39 41.596-17.827z m274.898 0c15.444-6.177 32.849 0.53 40.315 15.02l1.28 2.807 21.334 53.333 1.008 2.916c4.587 15.643-3.391 32.503-18.835 38.68-15.444 6.178-32.849-0.529-40.315-15.02l-1.28-2.806-21.334-53.334-1.008-2.916c-4.587-15.642 3.391-32.502 18.835-38.68zM512 85.333c16.634 0 30.303 12.691 31.854 28.919l0.146 3.081V192c0 17.673-14.327 32-32 32-16.634 0-30.303-12.69-31.854-28.918L480 192v-74.667c0-17.673 14.327-32 32-32z" fill="#2EDDBD" p-id="32620"></path></svg>