<?xml version="1.0" standalone="no"?><!DOCTYPE svg PUBLIC "-//W3C//DTD SVG 1.1//EN" "http://www.w3.org/Graphics/SVG/1.1/DTD/svg11.dtd"><svg t="1713860551481" class="icon" viewBox="0 0 1024 1024" version="1.1" xmlns="http://www.w3.org/2000/svg" p-id="32777" xmlns:xlink="http://www.w3.org/1999/xlink" width="40" height="40"><path d="M764.33 922.842H267.573c-18.741 0-33.87-15.129-33.87-33.87V540.789l-68.643 29.806c-15.806 6.774-34.095 0.903-42.676-14L22.354 386.117c-7.225-12.42-5.87-28.225 3.387-39.063 36.805-42.902 256.96-176.35 300.765-202.768 15.806-9.484 36.354-4.516 46.063 11.064 43.58 69.32 86.933 74.74 143.157 74.74s99.577-5.42 143.156-74.74c9.71-15.58 30.258-20.548 46.064-11.064 43.805 26.418 263.959 159.866 300.764 202.768 9.484 11.064 10.839 26.644 3.387 39.063L909.068 556.595c-8.58 14.677-26.87 20.774-42.676 14l-68.643-29.806v348.183c0.452 18.741-14.677 33.87-33.418 33.87z m-462.888-67.74h429.019V489.307c0-11.516 5.645-22.128 15.354-28.225 9.484-6.322 21.677-7.225 32.064-2.71l88.287 38.387 70.901-120.803C892.811 341.409 783.975 271.862 697.268 218.8c-57.578 72.481-123.286 79.03-181.317 79.03s-123.738-6.549-181.316-79.03c-86.707 52.837-195.768 122.609-239.8 157.156l70.676 120.803 88.513-38.612c10.387-4.516 22.58-3.613 32.064 2.71 9.483 6.322 15.354 16.934 15.354 28.224v366.021z" fill="#FFA099" p-id="32778"></path></svg>