<?xml version="1.0" standalone="no"?><!DOCTYPE svg PUBLIC "-//W3C//DTD SVG 1.1//EN" "http://www.w3.org/Graphics/SVG/1.1/DTD/svg11.dtd"><svg t="1713861051820" class="icon" viewBox="0 0 1024 1024" version="1.1" xmlns="http://www.w3.org/2000/svg" p-id="2531" xmlns:xlink="http://www.w3.org/1999/xlink" width="40" height="40"><path d="M921.6 614.4H767.86688c-18.76992 0-45.0048 10.86464-58.2656 24.13568l-64.13312 64.12288-34.06848-34.05824c-58.86976-58.85952-136.06912-88.34048-213.32992-88.34048-77.27104 0-154.4704 29.48096-213.34016 88.34048L102.4 750.94016l82.3296 82.31936C243.59936 892.09856 320.79872 921.6 398.06976 921.6a300.86144 300.86144 0 0 0 213.32992-88.34048l34.06848-34.05824 64.2048 64.14336c13.2608 13.2608 39.49568 24.1152 58.25536 24.1152H921.6l-34.12992-136.51968L921.6 614.4zM563.12832 784.9984a232.0384 232.0384 0 0 1-165.05856 68.34176 231.91552 231.91552 0 0 1-165.0688-68.38272l-34.06848-34.01728 34.06848-34.07872c44.07296-44.06272 102.69696-68.32128 165.0688-68.32128 62.3616 0 120.99584 24.25856 165.05856 68.32128l34.06848 34.07872-34.06848 34.05824zM834.17088 819.2h-66.24256c-1.83296-0.33792-8.45824-3.06176-10.92608-4.99712l-63.27296-63.26272 64.14336-64.14336c1.52576-1.06496 8.16128-3.79904 11.264-4.1984l65.04448 0.04096-17.07008 68.3008L834.17088 819.2z" p-id="2532" fill="#e6d99d"></path><path d="M358.4 750.94016a34.0992 34.0992 0 0 1-34.12992 34.11968 34.0992 34.0992 0 0 1-34.14016-34.11968A34.10944 34.10944 0 0 1 324.27008 716.8 34.10944 34.10944 0 0 1 358.4 750.94016zM290.12992 426.67008h51.2a51.2 51.2 0 0 1-102.4 0V300.93312C278.59968 286.83264 307.2 249.33376 307.2 204.8c0-56.56576-45.83424-102.4-102.4-102.4s-102.4 45.83424-102.4 102.4c0 44.53376 28.60032 82.03264 68.27008 96.13312v125.72672c0 65.96608 53.504 119.47008 119.45984 119.47008C356.096 546.14016 409.6 492.63616 409.6 426.67008V307.2L290.12992 426.67008zM204.8 238.92992a34.12992 34.12992 0 1 1 0-68.2496 34.12992 34.12992 0 0 1 0 68.2496z" p-id="2533" fill="#e6d99d"></path></svg>