<?xml version="1.0" standalone="no"?><!DOCTYPE svg PUBLIC "-//W3C//DTD SVG 1.1//EN" "http://www.w3.org/Graphics/SVG/1.1/DTD/svg11.dtd"><svg t="1713860578450" class="icon" viewBox="0 0 1024 1024" version="1.1" xmlns="http://www.w3.org/2000/svg" p-id="33093" xmlns:xlink="http://www.w3.org/1999/xlink" width="40" height="40"><path d="M512 1024a45.788 45.788 0 0 1-45.72-45.653v-11.176a45.72 45.72 0 0 1 91.373-3.522v14.63A45.788 45.788 0 0 1 512 1024z m328.78-136.687a44.975 44.975 0 0 1-32.241-13.547l-7.857-7.857a45.585 45.585 0 0 1 64.482-64.482l7.857 7.857a45.585 45.585 0 0 1-32.241 78.03z m-657.966 0a45.517 45.517 0 0 1-32.242-77.826l7.857-7.857a45.653 45.653 0 0 1 64.55 64.482l-7.924 7.858a45.517 45.517 0 0 1-32.241 13.343zM512 197.31A315.572 315.572 0 1 0 827.233 513.15 315.978 315.978 0 0 0 512 197.31z m0 549.05a233.546 233.546 0 1 1 233.479-233.614A233.817 233.817 0 0 1 512 746.36z m454.223-187.826a45.653 45.653 0 0 1 0-91.305h11.244a45.653 45.653 0 0 1 0 91.305z m-919.622 0a45.653 45.653 0 0 1-0.136-91.17H57.71a45.653 45.653 0 0 1 0 91.306H46.601z m786.66-321.465a44.975 44.975 0 0 1-32.24-13.546 45.653 45.653 0 0 1 0-64.483l7.856-7.925a45.653 45.653 0 0 1 64.483 64.55l-7.857 7.858a45.856 45.856 0 0 1-32.241 13.546z m-642.726 0a45.11 45.11 0 0 1-32.309-13.546l-7.654-7.79a45.517 45.517 0 1 1 64.415-64.415l7.654 7.79a45.585 45.585 0 0 1-32.106 77.961zM512 104.175a45.653 45.653 0 0 1-45.72-45.585V47.414a45.72 45.72 0 0 1 91.373-3.455v14.563A45.788 45.788 0 0 1 512 104.175z" fill="#FFC38F" p-id="33094"></path></svg>