<?xml version="1.0" standalone="no"?><!DOCTYPE svg PUBLIC "-//W3C//DTD SVG 1.1//EN" "http://www.w3.org/Graphics/SVG/1.1/DTD/svg11.dtd"><svg t="1713860581608" class="icon" viewBox="0 0 1024 1024" version="1.1" xmlns="http://www.w3.org/2000/svg" p-id="33251" xmlns:xlink="http://www.w3.org/1999/xlink" width="40" height="40"><path d="M183.828 840.547c11.9 19.392 46.612 74.757 72.079 115.378 15.4 24.536 27.408 43.683 28.912 46.201 7.33 12.31 19.681 19.64 34.11 20.077h1.012c13.568 0 27.067-6.4 40.593-19.558 31.581-36.928 30.787-55.255 30.404-64.063l-0.054-1.861c0.232-9.465 0.176-32.743 0.122-58.727-0.082-30.283-0.165-64.449 0.19-84.444L510.38 678.856c34.15 93.714 101.688 275.945 106.338 288.091 9.834 24.947 29.338 29.323 37.242 30.063 15.853 1.423 32.414-5.059 45.832-18.464 1.874-1.995 46.077-49.073 65.308-72.488 21.212-25.521 20.297-48.223 19.914-57.883-0.056-3.09-3.366-58.07-9.206-155.014-5.539-91.663-12.159-201.713-15.741-263.903l205.893-205.933c50.494-50.344 58.03-102.782 58.018-129.576 0-29.569-8.674-55.857-23.171-70.272C986.417 9.007 958.983 0.007 929.194 0.007c-26.74 0-79.067 7.453-129.112 57.415L594.385 263.233c-53.23-3.376-141.394-9.122-223.4-14.469-104.314-6.81-194.405-12.679-198.453-12.775a91.937 91.937 0 0 0-5.17-0.137c-18.765 0-35.778 6.525-51.972 19.954-23.333 19.312-70.504 63.64-72.665 65.677-13.253 13.321-19.928 30.008-18.34 45.832 1.038 9.903 6.373 27.875 30.171 37.148 11.543 4.527 193.858 72.775 290.417 108.378L230.195 631.234c-4.882 0.055-10.476 0.383-17 0.055-21.158 0-48.84-0.384-73.241-0.74-25.235-0.355-46.776-0.71-54.53-0.437l0.273 7.002-2.066-7.002-1.654-0.028c-11.53 0-28.982 3.53-62.163 31.321l-2.954 2.762C3.483 677.625 0.339 691.137 0.051 700.11c-0.451 13.54 5.24 25.74 15.934 34.33 7.44 6.046 96.203 62.698 167.843 106.108z m30.46-47.051c-59.959-36.298-124.283-77.164-151.405-94.892 12.433-9.628 18.628-12.061 20.036-12.527l10.148-0.028c9.356 0 24.345 0.22 41.374 0.437l4.718 0.083c33.866 0.492 74.007 1.066 95.028 0.63 13.022-0.275 25.166-5.553 34.22-14.908l124.27-128.202c11.599-11.94 16.302-28.776 12.61-45.01-3.705-16.25-15.25-29.364-30.883-35.108-80.926-29.747-240.768-89.502-287.462-107.147 13.923-12.993 46.993-43.657 64.172-57.88 8.56-7.071 13.758-7.071 16.249-7.071 0.901 0 1.722 0.027 3.007 0.096 6.975 0.302 107.911 6.88 196.976 12.693 83.675 5.456 173.766 11.325 226.669 14.687 14.184 0.958 27.777-4.28 37.762-14.265L839.653 97.057c35.766-35.697 71.463-41.03 89.546-41.03 19.94 0 30.827 6.017 32.003 7.057 8.74 8.916 18.573 67.359-34.85 120.618L718.23 391.865c-9.861 9.876-15.074 23.526-14.265 37.462 3.363 58.92 9.71 164.182 15.182 254.862l0.739 12.392c3.965 65.73 8.916 147.548 9.163 153.785 0.232 6.1 0.425 10.913-7.236 20.132-13.977 17.041-43.643 49.099-57.455 63.926-17.041-45.762-76.195-205.537-104.998-284.837-5.676-15.645-18.765-27.215-34.973-30.991-15.973-3.72-33.207 1.012-45.08 12.418l-129.029 124.16c-9.41 9.083-14.744 21.255-15.03 34.276-0.424 20.325-0.345 56.622-0.262 89.638 0.055 24.538 0.11 47.541-0.108 56.54-0.028 1.561 0 3.34 0.272 5.006 0 0.056-1.478 5.855-11.189 18.383l-20.57-32.824c-26.095-41.633-61.845-98.639-72.679-116.336-4.075-6.676-9.764-12.31-16.425-16.361z" fill="#B37FEB" p-id="33252"></path></svg>