<?xml version="1.0" standalone="no"?><!DOCTYPE svg PUBLIC "-//W3C//DTD SVG 1.1//EN" "http://www.w3.org/Graphics/SVG/1.1/DTD/svg11.dtd"><svg t="1713861791843" class="icon" viewBox="0 0 1024 1024" version="1.1" xmlns="http://www.w3.org/2000/svg" p-id="9501" xmlns:xlink="http://www.w3.org/1999/xlink" width="40" height="40"><path d="M123.4 583.2c-26-117.3-32-216.7-17.7-295.4 12.6-69.4 40.9-124 84.1-162.4C232.4 87.6 290 66.1 356.3 63.2c47.2-2.1 88.1 6.1 99.5 10.1l-19.9 56.6c0.1 0 0.2 0.1 0.4 0.1-6.1-1.9-39.6-9-81-6.7-52.8 3-95.9 19.5-128 49.1-32.1 29.6-53.3 72.9-63 128.7-12.2 70.5-6.3 161 17.7 269.1l-58.6 13z m740.2 108.1l-57.3-17.8c92.8-298.8 53.5-431.8 4.2-490.7-57.5-68.9-145.4-59-146.3-58.8l-7.4-59.5c4.9-0.6 121.4-13.8 199.8 79.9 85.6 102.3 88 286.4 7 546.9z" p-id="9502" fill="#e1a4c4"></path><path d="M423 961.8l-59.8-4.4c13-174.4-8-321.7-27.9-414.5-21.6-100.8-46.6-161-46.9-161.6l55.3-23.3c1.1 2.6 27 64.8 49.9 170.5 13.3 61.8 22.8 125.8 28.3 190.4 6.7 80.6 7.1 162.4 1.1 242.9z m283.3-94.2c-45.6-66.4-73.6-133.6-83.1-199.8-7.8-53.9-3.4-107 12.9-157.8 27.8-86.6 80.8-136.6 83.1-138.7l40.9 43.9 0.1-0.1c-0.4 0.4-45.2 43.2-67.7 115.8-29.9 96.3-8.6 198.1 63.4 302.8l-49.6 33.9zM394.6 261.4a46.3 46.3 0 1 0 92.6 0 46.3 46.3 0 1 0-92.6 0zM562.7 345.4a46.3 46.3 0 1 0 92.6 0 46.3 46.3 0 1 0-92.6 0zM470.3 532.1a46.3 46.3 0 1 0 92.6 0 46.3 46.3 0 1 0-92.6 0z" p-id="9503" fill="#e1a4c4"></path></svg>