<?xml version="1.0" standalone="no"?><!DOCTYPE svg PUBLIC "-//W3C//DTD SVG 1.1//EN" "http://www.w3.org/Graphics/SVG/1.1/DTD/svg11.dtd"><svg t="1713861780814" class="icon" viewBox="0 0 1024 1024" version="1.1" xmlns="http://www.w3.org/2000/svg" p-id="8340" xmlns:xlink="http://www.w3.org/1999/xlink" width="40" height="40"><path d="M365.504728 345.191588a59.913735 59.913735 0 1 0 59.890816 59.913736 59.592851 59.592851 0 0 0-59.890816-59.913736z m319.199938 0.68761a59.913735 59.913735 0 1 0 59.890815 59.913736c0.67615-33.337616-26.541739-59.913735-59.890815-59.913736z m189.207301-196.083399C777.256947 53.106398 648.662451 0 511.828098 0S246.410708 53.106398 149.755688 149.795799 0.01719 375.148456 0.01719 512.00573s53.083478 265.520531 149.738498 362.209931 225.272436 149.784339 362.07241 149.784339 265.42885-53.106398 362.083869-149.784339c200.094457-199.487068 200.094457-524.932795 0-724.419862z m-46.986671 677.444652c-84.392645 84.415565-195.968798 130.726086-315.154499 130.726086s-230.727474-46.310521-315.1545-130.726086-130.645865-196.09486-130.645865-315.234721S112.326794 281.186575 196.707978 196.771009 393.410227 66.044923 511.828098 66.044923c119.105481 0 230.727474 46.299061 315.154499 130.726086 174.194487 173.610019 174.194487 456.160353-0.03438 630.469442z" p-id="8341" fill="#82c785"></path><path d="M697.505669 638.480096A28.856692 28.856692 0 0 0 660.122615 622.160823c-90.168567 35.388985-184.88682 35.194162-298.055936-0.65323a28.856692 28.856692 0 1 0-17.407988 55.008786C406.658176 696.147639 465.04771 705.946079 520.618043 705.946079a435.004891 435.004891 0 0 0 160.568353-30.082929 28.856692 28.856692 0 0 0 16.319273-37.383054z" p-id="8342" fill="#82c785"></path></svg>