<?xml version="1.0" standalone="no"?><!DOCTYPE svg PUBLIC "-//W3C//DTD SVG 1.1//EN" "http://www.w3.org/Graphics/SVG/1.1/DTD/svg11.dtd"><svg t="1713860585626" class="icon" viewBox="0 0 1024 1024" version="1.1" xmlns="http://www.w3.org/2000/svg" p-id="33411" xmlns:xlink="http://www.w3.org/1999/xlink" width="40" height="40"><path d="M209.239 755.59a139.06 139.06 0 0 1 27.177-159.233l79.13-78.725 49.152 48.865-79.145 78.705a70.144 70.144 0 0 0-13.732 80.353z" fill="#FFEA8F" p-id="33412"></path><path d="M869.888 149.094a246.83 246.83 0 0 0-349.066 0L148.966 520.888a246.784 246.784 0 0 0 349.062 349l371.86-371.773a247.06 247.06 0 0 0 0-349.02zM449.024 820.915A177.52 177.52 0 0 1 197.96 569.882L361.2 406.656l248.428 253.676z m371.835-371.799L658.637 611.328l-248.428-253.67 159.59-159.57a177.516 177.516 0 0 1 251.065 251.028z" fill="#FFEA8F" p-id="33413"></path></svg>