<?xml version="1.0" standalone="no"?><!DOCTYPE svg PUBLIC "-//W3C//DTD SVG 1.1//EN" "http://www.w3.org/Graphics/SVG/1.1/DTD/svg11.dtd"><svg t="1713871733330" class="icon" viewBox="0 0 1024 1024" version="1.1" xmlns="http://www.w3.org/2000/svg" p-id="1316" width="40" height="40" xmlns:xlink="http://www.w3.org/1999/xlink"><path d="M789.333333 512c0 153.173333-124.16 277.333333-277.333333 277.333333s-277.333333-124.16-277.333333-277.333333 124.16-277.333333 277.333333-277.333333 277.333333 124.16 277.333333 277.333333z" fill="#FFBB36" p-id="1317"></path><path d="M493.525333 53.333333a21.333333 21.333333 0 0 1 36.949334 0l37.013333 64.106667a21.333333 21.333333 0 0 1-18.474667 32h-74.026666a21.333333 21.333333 0 0 1-18.474667-32L493.525333 53.333333z m0 917.482667a21.333333 21.333333 0 0 0 36.949334 0l37.013333-64.106667a21.333333 21.333333 0 0 0-18.474667-32h-74.026666a21.333333 21.333333 0 0 0-18.474667 32l37.013333 64.106667zM53.333333 530.517333a21.333333 21.333333 0 0 1 0-36.949333l64.106667-37.013333a21.333333 21.333333 0 0 1 32 18.474666v74.026667a21.333333 21.333333 0 0 1-32 18.474667L53.333333 530.517333z m917.482667 0a21.333333 21.333333 0 0 0 0-36.949333l-64.106667-37.013333a21.333333 21.333333 0 0 0-32 18.474666v74.026667a21.333333 21.333333 0 0 0 32 18.474667l64.106667-37.013334zM200.682667 174.634667A21.333333 21.333333 0 0 0 174.592 200.746667l19.157333 71.488a21.333333 21.333333 0 0 0 35.690667 9.557333l52.352-52.330667a21.333333 21.333333 0 0 0-9.578667-35.690666l-71.488-19.157334z m648.746666 648.746666a21.333333 21.333333 0 0 1-26.112 26.133334l-71.488-19.157334a21.333333 21.333333 0 0 1-9.578666-35.690666l52.352-52.352a21.333333 21.333333 0 0 1 35.690666 9.578666l19.157334 71.488zM200.725333 849.514667a21.333333 21.333333 0 0 1-26.133333-26.133334l19.157333-71.488a21.333333 21.333333 0 0 1 35.690667-9.578666l52.352 52.352a21.333333 21.333333 0 0 1-9.578667 35.690666l-71.488 19.157334z m648.746667-648.746667a21.333333 21.333333 0 0 0-26.133333-26.133333l-71.488 19.157333a21.333333 21.333333 0 0 0-9.557334 35.690667l52.330667 52.330666a21.333333 21.333333 0 0 0 35.690667-9.557333l19.157333-71.488z" fill="#FF9315" p-id="1318"></path></svg>