<?xml version="1.0" standalone="no"?><!DOCTYPE svg PUBLIC "-//W3C//DTD SVG 1.1//EN" "http://www.w3.org/Graphics/SVG/1.1/DTD/svg11.dtd"><svg t="1713872295029" class="icon" viewBox="0 0 1024 1024" version="1.1" xmlns="http://www.w3.org/2000/svg" p-id="1997" xmlns:xlink="http://www.w3.org/1999/xlink" width="40" height="40"><path d="M873.877333 545.194667c50.944-24.704 86.186667-77.888 86.186667-139.52 0-85.205333-67.328-154.261333-150.4-154.261334-2.688 0-5.376 0.064-8.021333 0.213334-22.378667 1.194667-45.269333-8.896-57.514667-27.648C706.346667 166.101333 642.026667 128 569.024 128c-93.717333 0-173.141333 62.805333-200.448 149.632 108.757333 4.693333 202.944 66.261333 255.210667 155.989333 6.592 11.306667 20.736 18.112 35.2 16.234667 9.514667-1.216 19.2-1.856 29.013333-1.856 76.693333 0 144.298667 38.4 185.877333 97.194667z" fill="#193E69" p-id="1998"></path><path d="M64 597.333333c0 164.949333 130.368 298.666667 291.2 298.666667h332.8C802.88 896 896 800.490667 896 682.666667s-93.12-213.333333-208-213.333334c-8.896 0-17.664 0.576-26.261333 1.685334-22.229333 2.88-45.098667-7.317333-56.384-26.666667C554.517333 357.12 461.504 298.666667 355.2 298.666667 194.368 298.666667 64 432.384 64 597.333333z" fill="#B1CEEE" p-id="1999"></path></svg>