<?xml version="1.0" standalone="no"?><!DOCTYPE svg PUBLIC "-//W3C//DTD SVG 1.1//EN" "http://www.w3.org/Graphics/SVG/1.1/DTD/svg11.dtd"><svg t="1713874358453" class="icon" viewBox="0 0 1024 1024" version="1.1" xmlns="http://www.w3.org/2000/svg" p-id="7766" xmlns:xlink="http://www.w3.org/1999/xlink" width="40" height="40"><path d="M862.741333 390.570667c20.842667 0 39.658667 18.176 31.168 37.205333a214.592 214.592 0 0 1-86.677333 97.045333A224.298667 224.298667 0 0 0 688 490.666667c-9.813333 0-19.498667 0.64-29.013333 1.856-14.464 1.877333-28.608-4.949333-35.2-16.234667a316.458667 316.458667 0 0 0-140.416-128.213333c-0.064-2.24-0.106667-4.48-0.106667-6.741334 0-117.824 96.042667-213.333333 214.506667-213.333333 14.250667 0 21.376 16.341333 15.317333 29.248a162.730667 162.730667 0 0 0-15.338667 69.205333c0 90.645333 73.877333 164.117333 164.992 164.117334z" fill="#9C4CA9" p-id="7767"></path><path d="M64 640c0 164.949333 130.368 298.666667 291.2 298.666667h332.8C802.88 938.666667 896 843.157333 896 725.333333s-93.12-213.333333-208-213.333333c-8.896 0-17.664 0.576-26.261333 1.685333-22.229333 2.88-45.098667-7.317333-56.384-26.666666C554.517333 399.786667 461.504 341.333333 355.2 341.333333 194.368 341.333333 64 475.050667 64 640z" fill="#B1CEEE" p-id="7768"></path></svg>