<?xml version="1.0" standalone="no"?><!DOCTYPE svg PUBLIC "-//W3C//DTD SVG 1.1//EN" "http://www.w3.org/Graphics/SVG/1.1/DTD/svg11.dtd"><svg t="1713872563645" class="icon" viewBox="0 0 1024 1024" version="1.1" xmlns="http://www.w3.org/2000/svg" p-id="2828" xmlns:xlink="http://www.w3.org/1999/xlink" width="40" height="40"><path d="M780.437333 438.357333a170.666667 170.666667 0 0 0-297.386666-164.138666 262.656 262.656 0 0 1 124.906666 105.258666c7.125333 11.477333 21.866667 18.56 37.098667 17.258667a188.330667 188.330667 0 0 1 135.381333 41.621333z" fill="#FFBB36" p-id="2829"></path><path d="M651.477333 49.28a13.226667 13.226667 0 0 0-22.912 0L592 112.554667a13.226667 13.226667 0 0 0 11.456 19.84h73.066667a13.226667 13.226667 0 0 0 11.456-19.84L651.477333 49.28zM838.4 126.72a13.226667 13.226667 0 0 1 16.213333 16.213333l-17.642666 65.770667a13.226667 13.226667 0 0 1-22.122667 5.930667L766.72 166.464a13.226667 13.226667 0 0 1 5.930667-22.122667L838.4 126.72z m93.653333 203.157333a13.226667 13.226667 0 0 1 0 22.890667l-59.008 34.069333a13.226667 13.226667 0 0 1-19.84-11.456v-68.117333a13.226667 13.226667 0 0 1 19.84-11.456l58.986667 34.069333zM425.386667 142.912a13.226667 13.226667 0 0 1 16.213333-16.192l70.549333 18.922667a13.226667 13.226667 0 0 1 5.930667 22.122666l-51.669333 51.669334a13.226667 13.226667 0 0 1-22.122667-5.930667l-18.901333-70.592z" fill="#FF9315" p-id="2830"></path><path d="M149.333333 522.389333c0 135.338667 106.965333 245.056 238.933334 245.056H661.333333c94.250667 0 170.666667-78.357333 170.666667-175.04 0-96.661333-76.416-175.04-170.666667-175.04-4.864 0-9.685333 0.213333-14.464 0.64-22.314667 1.92-45.205333-8.234667-57.024-27.242666C547.392 322.56 472.96 277.333333 388.266667 277.333333 256.298667 277.333333 149.333333 387.050667 149.333333 522.389333z" fill="#B1CEEE" p-id="2831"></path><path d="M278.698667 932.608a45.525333 45.525333 0 0 0 62.165333-16.746667c8.64-14.976 4.757333-51.157333 1.493333-72.32a13.461333 13.461333 0 0 0-18.346666-10.581333c-19.968 7.744-53.226667 22.464-61.866667 37.44a45.525333 45.525333 0 0 0 16.554667 62.208z m336.597333 42.666667a45.525333 45.525333 0 0 0 62.165333-16.746667c8.64-14.976 4.757333-51.157333 1.493334-72.32a13.482667 13.482667 0 0 0-18.346667-10.581333c-19.968 7.744-53.226667 22.464-61.866667 37.44a45.525333 45.525333 0 0 0 16.554667 62.208z" fill="#408CFF" p-id="2832"></path></svg>