<?xml version="1.0" standalone="no"?><!DOCTYPE svg PUBLIC "-//W3C//DTD SVG 1.1//EN" "http://www.w3.org/Graphics/SVG/1.1/DTD/svg11.dtd"><svg t="1713872723100" class="icon" viewBox="0 0 1024 1024" version="1.1" xmlns="http://www.w3.org/2000/svg" p-id="3330" xmlns:xlink="http://www.w3.org/1999/xlink" width="40" height="40"><path d="M736 704H377.6C204.394667 704 64 560.725333 64 384 64 207.274667 204.394667 64 377.6 64c115.541333 0 216.512 63.786667 270.912 158.72 11.093333 19.370667 33.92 29.546667 56.042667 26.368 10.282667-1.472 20.778667-2.24 31.445333-2.24 123.712 0 224 102.336 224 228.586667C960 601.664 859.733333 704 736 704z" fill="#B1CEEE" p-id="3331"></path><path d="M551.786667 915.861333a45.525333 45.525333 0 0 1-62.144 16.746667 45.525333 45.525333 0 0 1-16.576-62.208c8.64-14.976 41.92-29.696 61.888-37.44a13.461333 13.461333 0 0 1 18.346666 10.581333c3.264 21.162667 7.146667 57.344-1.493333 72.32z" fill="#408CFF" p-id="3332"></path></svg>