<?xml version="1.0" standalone="no"?><!DOCTYPE svg PUBLIC "-//W3C//DTD SVG 1.1//EN" "http://www.w3.org/Graphics/SVG/1.1/DTD/svg11.dtd"><svg t="1713872918144" class="icon" viewBox="0 0 1024 1024" version="1.1" xmlns="http://www.w3.org/2000/svg" p-id="3994" xmlns:xlink="http://www.w3.org/1999/xlink" width="40" height="40"><path d="M736 725.333333H377.6C204.394667 725.333333 64 582.058667 64 405.333333 64 228.608 204.394667 85.333333 377.6 85.333333c115.541333 0 216.512 63.786667 270.912 158.72 11.093333 19.370667 33.92 29.546667 56.042667 26.368 10.282667-1.472 20.778667-2.24 31.445333-2.24 123.712 0 224 102.336 224 228.586667C960 622.997333 859.733333 725.333333 736 725.333333z" fill="#193E69" p-id="3995"></path><path d="M272.768 915.84a45.525333 45.525333 0 0 1-62.144 16.746667 45.525333 45.525333 0 0 1-16.576-62.208c8.64-14.976 41.898667-29.696 61.888-37.44a13.461333 13.461333 0 0 1 18.325333 10.56c3.285333 21.184 7.168 57.365333-1.493333 72.32z m139.52 0a45.525333 45.525333 0 0 1-62.165333 16.746667 45.525333 45.525333 0 0 1-16.576-62.208c8.661333-14.976 41.92-29.696 61.909333-37.44a13.482667 13.482667 0 0 1 18.304 10.56c3.285333 21.184 7.168 57.365333-1.493333 72.32z m77.354667 16.746667a45.525333 45.525333 0 0 0 62.144-16.746667c8.64-14.976 4.778667-51.157333 1.493333-72.32a13.461333 13.461333 0 0 0-18.325333-10.581333c-19.989333 7.744-53.248 22.464-61.888 37.44a45.525333 45.525333 0 0 0 16.576 62.208z m201.664-16.746667a45.525333 45.525333 0 0 1-62.165334 16.746667 45.525333 45.525333 0 0 1-16.576-62.208c8.661333-14.976 41.92-29.696 61.909334-37.44a13.482667 13.482667 0 0 1 18.304 10.56c3.285333 21.184 7.168 57.365333-1.493334 72.32z m77.354666 16.746667a45.525333 45.525333 0 0 0 62.144-16.746667c8.64-14.976 4.757333-51.157333 1.493334-72.32a13.482667 13.482667 0 0 0-18.346667-10.581333c-19.968 7.744-53.226667 22.464-61.866667 37.44a45.525333 45.525333 0 0 0 16.576 62.208z" fill="#408CFF" p-id="3996"></path></svg>