<?xml version="1.0" standalone="no"?><!DOCTYPE svg PUBLIC "-//W3C//DTD SVG 1.1//EN" "http://www.w3.org/Graphics/SVG/1.1/DTD/svg11.dtd"><svg t="1713872950262" class="icon" viewBox="0 0 1024 1024" version="1.1" xmlns="http://www.w3.org/2000/svg" p-id="4326" xmlns:xlink="http://www.w3.org/1999/xlink" width="40" height="40"><path d="M736 704H377.6C204.394667 704 64 560.725333 64 384 64 207.274667 204.394667 64 377.6 64c115.541333 0 216.512 63.786667 270.912 158.72 11.093333 19.370667 33.92 29.546667 56.042667 26.368 10.282667-1.472 20.778667-2.24 31.445333-2.24 123.712 0 224 102.336 224 228.586667C960 601.664 859.733333 704 736 704z" fill="#5085BF" p-id="4327"></path><path d="M404.842667 894.506667a45.525333 45.525333 0 0 1-62.165334 16.746666 45.525333 45.525333 0 0 1-16.576-62.208c8.661333-14.976 41.92-29.696 61.909334-37.44a13.482667 13.482667 0 0 1 18.325333 10.56c3.264 21.184 7.146667 57.365333-1.493333 72.32zM661.056 837.269333a21.333333 21.333333 0 0 0-36.949333 0L584.042667 906.666667a21.333333 21.333333 0 0 0 18.474666 32H682.666667a21.333333 21.333333 0 0 0 18.453333-32l-40.064-69.397334z" fill="#408CFF" p-id="4328"></path></svg>