<?xml version="1.0" standalone="no"?><!DOCTYPE svg PUBLIC "-//W3C//DTD SVG 1.1//EN" "http://www.w3.org/Graphics/SVG/1.1/DTD/svg11.dtd"><svg t="1713873164662" class="icon" viewBox="0 0 1024 1024" version="1.1" xmlns="http://www.w3.org/2000/svg" p-id="4492" xmlns:xlink="http://www.w3.org/1999/xlink" width="40" height="40"><path d="M736 704H377.6C204.394667 704 64 560.725333 64 384 64 207.274667 204.394667 64 377.6 64c115.541333 0 216.512 63.786667 270.912 158.72 11.093333 19.370667 33.92 29.546667 56.042667 26.368 10.282667-1.472 20.778667-2.24 31.445333-2.24 123.712 0 224 102.336 224 228.586667C960 601.664 859.733333 704 736 704z" fill="#B1CEEE" p-id="4493"></path><path d="M433.301333 849.621333a13.226667 13.226667 0 0 0 0 22.912l26.090667 15.061334v37.824a13.226667 13.226667 0 0 0 19.84 11.456L512 917.973333l32.746667 18.901334a13.226667 13.226667 0 0 0 19.84-11.456v-37.824l26.090666-15.061334a13.226667 13.226667 0 0 0 0-22.912l-26.090666-15.061333v-37.824a13.226667 13.226667 0 0 0-19.84-11.456L512 804.181333l-32.746667-18.901333a13.226667 13.226667 0 0 0-19.84 11.456v37.824l-26.090666 15.061333z" fill="#CCCCCC" p-id="4494"></path></svg>