<?xml version="1.0" standalone="no"?><!DOCTYPE svg PUBLIC "-//W3C//DTD SVG 1.1//EN" "http://www.w3.org/Graphics/SVG/1.1/DTD/svg11.dtd"><svg t="1713873189933" class="icon" viewBox="0 0 1024 1024" version="1.1" xmlns="http://www.w3.org/2000/svg" p-id="4824" xmlns:xlink="http://www.w3.org/1999/xlink" width="40" height="40"><path d="M736 704H377.6C204.394667 704 64 560.725333 64 384 64 207.274667 204.394667 64 377.6 64c115.541333 0 216.512 63.786667 270.912 158.72 11.093333 19.370667 33.92 29.546667 56.042667 26.368 10.282667-1.472 20.778667-2.24 31.445333-2.24 123.712 0 224 102.336 224 228.586667C960 601.664 859.733333 704 736 704z" fill="#5085BF" p-id="4825"></path><path d="M433.216 812.8a13.226667 13.226667 0 0 0 0 22.912l26.090667 15.061333v37.824a13.226667 13.226667 0 0 0 19.84 11.456l32.768-18.901333 32.746666 18.901333a13.226667 13.226667 0 0 0 19.84-11.456V850.773333l26.090667-15.061333a13.226667 13.226667 0 0 0 0-22.912l-26.090667-15.061333v-37.824a13.226667 13.226667 0 0 0-19.84-11.456l-32.746666 18.922666-32.768-18.922666a13.226667 13.226667 0 0 0-19.84 11.456v37.824l-26.090667 15.061333zM177.28 849.621333a13.226667 13.226667 0 0 0 0 22.912l26.090667 15.061334v37.824a13.226667 13.226667 0 0 0 19.84 11.456l32.768-18.922667 32.746666 18.922667a13.226667 13.226667 0 0 0 19.84-11.456v-37.824l26.090667-15.061334a13.226667 13.226667 0 0 0 0-22.912l-26.090667-15.061333v-37.824a13.226667 13.226667 0 0 0-19.84-11.456l-32.768 18.901333-32.746666-18.901333a13.226667 13.226667 0 0 0-19.84 11.456v37.824l-26.090667 15.061333z m512 22.912a13.226667 13.226667 0 0 1 0-22.912l26.090667-15.061333v-37.824a13.226667 13.226667 0 0 1 19.84-11.456l32.746666 18.901333 32.768-18.901333a13.226667 13.226667 0 0 1 19.84 11.456v37.824l26.090667 15.061333a13.226667 13.226667 0 0 1 0 22.912l-26.090667 15.061334v37.824a13.226667 13.226667 0 0 1-19.84 11.456L768 917.952l-32.768 18.922667a13.226667 13.226667 0 0 1-19.84-11.456v-37.824L689.28 872.533333z" fill="#CCCCCC" p-id="4826"></path></svg>