<?xml version="1.0" standalone="no"?><!DOCTYPE svg PUBLIC "-//W3C//DTD SVG 1.1//EN" "http://www.w3.org/Graphics/SVG/1.1/DTD/svg11.dtd"><svg t="1713873223417" class="icon" viewBox="0 0 1024 1024" version="1.1" xmlns="http://www.w3.org/2000/svg" p-id="5156" xmlns:xlink="http://www.w3.org/1999/xlink" width="40" height="40"><path d="M736 704H377.6C204.394667 704 64 560.725333 64 384 64 207.274667 204.394667 64 377.6 64c115.541333 0 216.512 63.786667 270.912 158.72 11.093333 19.370667 33.92 29.546667 56.042667 26.368 10.282667-1.472 20.778667-2.24 31.445333-2.24 123.712 0 224 102.336 224 228.586667C960 601.664 859.733333 704 736 704z" fill="#193E69" p-id="5157"></path><path d="M278.698667 908.352a45.525333 45.525333 0 0 0 62.165333-16.746667c8.64-14.976 4.757333-51.157333 1.493333-72.32a13.461333 13.461333 0 0 0-18.346666-10.602666c-19.968 7.765333-53.226667 22.485333-61.866667 37.461333a45.525333 45.525333 0 0 0 16.554667 62.208zM700.672 911.274667a45.525333 45.525333 0 0 0 62.165333-16.746667c8.64-14.976 4.757333-51.157333 1.493334-72.32a13.482667 13.482667 0 0 0-18.346667-10.581333c-19.968 7.744-53.226667 22.464-61.866667 37.44a45.525333 45.525333 0 0 0 16.554667 62.208z" fill="#408CFF" p-id="5158"></path><path d="M433.301333 849.621333a13.226667 13.226667 0 0 0 0 22.912l26.090667 15.061334v37.845333a13.226667 13.226667 0 0 0 19.84 11.456L512 917.973333l32.746667 18.901334a13.226667 13.226667 0 0 0 19.84-11.434667v-37.824l26.090666-15.082667a13.226667 13.226667 0 0 0 0-22.890666l-26.090666-15.061334v-37.845333a13.226667 13.226667 0 0 0-19.84-11.456L512 804.202667l-32.746667-18.922667a13.226667 13.226667 0 0 0-19.84 11.456v37.824l-26.090666 15.061333z" fill="#CCCCCC" p-id="5159"></path></svg>