<?xml version="1.0" standalone="no"?><!DOCTYPE svg PUBLIC "-//W3C//DTD SVG 1.1//EN" "http://www.w3.org/Graphics/SVG/1.1/DTD/svg11.dtd"><svg t="1713873364355" class="icon" viewBox="0 0 1024 1024" version="1.1" xmlns="http://www.w3.org/2000/svg" p-id="5491" xmlns:xlink="http://www.w3.org/1999/xlink" width="40" height="40"><path d="M776.789333 443.434667A170.666667 170.666667 0 1 0 481.92 276.906667a263.189333 263.189333 0 0 1 114.368 100.778666c7.125333 11.456 21.866667 18.56 37.12 17.237334a188.672 188.672 0 0 1 143.402667 48.490666z" fill="#FFBB36" p-id="5492"></path><path d="M651.477333 49.28a13.226667 13.226667 0 0 0-22.912 0L592 112.554667a13.226667 13.226667 0 0 0 11.456 19.84h73.066667a13.226667 13.226667 0 0 0 11.456-19.84L651.477333 49.28zM838.4 126.72a13.226667 13.226667 0 0 1 16.213333 16.213333l-17.642666 65.770667a13.226667 13.226667 0 0 1-22.122667 5.930667L766.72 166.464a13.226667 13.226667 0 0 1 5.930667-22.122667L838.4 126.72z m93.653333 203.157333a13.226667 13.226667 0 0 1 0 22.890667l-59.008 34.069333a13.226667 13.226667 0 0 1-19.84-11.456v-68.117333a13.226667 13.226667 0 0 1 19.84-11.456l58.986667 34.069333zM425.386667 142.912a13.226667 13.226667 0 0 1 16.213333-16.192l70.549333 18.922667a13.226667 13.226667 0 0 1 5.930667 22.122666l-51.669333 51.669334a13.226667 13.226667 0 0 1-22.122667-5.930667l-18.901333-70.592z" fill="#FF9315" p-id="5493"></path><path d="M137.685333 520.618667c0 135.338667 106.986667 245.056 238.933334 245.056h273.066666c94.250667 0 170.666667-78.378667 170.666667-175.04 0-96.682667-76.416-175.061333-170.666667-175.061334-4.864 0-9.685333 0.213333-14.464 0.64-22.314667 1.92-45.205333-8.213333-57.024-27.242666-42.432-68.202667-116.864-113.429333-201.578666-113.429334-131.946667 0-238.933333 109.717333-238.933334 245.077334z" fill="#B1CEEE" p-id="5494"></path><path d="M262.613333 915.285333a13.226667 13.226667 0 0 1 0-22.912l26.090667-15.061333v-37.824a13.226667 13.226667 0 0 1 19.84-11.456l32.768 18.922667 32.746667-18.922667a13.226667 13.226667 0 0 1 19.84 11.456v37.824l26.090666 15.061333a13.226667 13.226667 0 0 1 0 22.912l-26.090666 15.061334v37.824a13.226667 13.226667 0 0 1-19.84 11.456L341.333333 960.725333l-32.768 18.901334a13.226667 13.226667 0 0 1-19.84-11.456V930.346667l-26.090666-15.061334z m341.333334 0a13.226667 13.226667 0 0 1 0-22.912l26.090666-15.061333v-37.824a13.226667 13.226667 0 0 1 19.84-11.456l32.746667 18.922667 32.768-18.922667a13.226667 13.226667 0 0 1 19.84 11.456v37.824l26.090667 15.061333a13.226667 13.226667 0 0 1 0 22.912l-26.090667 15.061334v37.824a13.226667 13.226667 0 0 1-19.84 11.456L682.666667 960.725333l-32.768 18.901334a13.226667 13.226667 0 0 1-19.84-11.456V930.346667l-26.090667-15.061334z" fill="#CCCCCC" p-id="5495"></path></svg>