<?xml version="1.0" standalone="no"?><!DOCTYPE svg PUBLIC "-//W3C//DTD SVG 1.1//EN" "http://www.w3.org/Graphics/SVG/1.1/DTD/svg11.dtd"><svg t="1713873535808" class="icon" viewBox="0 0 1024 1024" version="1.1" xmlns="http://www.w3.org/2000/svg" p-id="5827" xmlns:xlink="http://www.w3.org/1999/xlink" width="40" height="40"><path d="M736 704H377.6C204.394667 704 64 560.725333 64 384 64 207.274667 204.394667 64 377.6 64c115.541333 0 216.512 63.786667 270.912 158.72 11.093333 19.370667 33.92 29.546667 56.042667 26.368 10.282667-1.472 20.778667-2.24 31.445333-2.24 123.712 0 224 102.336 224 228.586667C960 601.664 859.733333 704 736 704z" fill="#B1CEEE" p-id="5828"></path><path d="M213.333333 874.666667a42.666667 42.666667 0 0 1 42.666667-42.666667h256a42.666667 42.666667 0 1 1 0 85.333333H256a42.666667 42.666667 0 0 1-42.666667-42.666666zM640 874.666667a42.666667 42.666667 0 0 1 42.666667-42.666667h85.333333a42.666667 42.666667 0 1 1 0 85.333333h-85.333333a42.666667 42.666667 0 0 1-42.666667-42.666666z" fill="#193E69" p-id="5829"></path></svg>