<?xml version="1.0" standalone="no"?><!DOCTYPE svg PUBLIC "-//W3C//DTD SVG 1.1//EN" "http://www.w3.org/Graphics/SVG/1.1/DTD/svg11.dtd"><svg t="1713873565795" class="icon" viewBox="0 0 1024 1024" version="1.1" xmlns="http://www.w3.org/2000/svg" p-id="6159" xmlns:xlink="http://www.w3.org/1999/xlink" width="40" height="40"><path d="M149.333333 458.666667a32 32 0 1 1-64 0 32 32 0 0 1 64 0z m192-234.666667a32 32 0 1 1-64 0 32 32 0 0 1 64 0zM693.333333 149.333333a32 32 0 1 0 0-64 32 32 0 0 0 0 64zM938.666667 266.666667a32 32 0 1 1-64 0 32 32 0 0 1 64 0zM608 448a32 32 0 1 0 0-64 32 32 0 0 0 0 64z" fill="#8D620F" p-id="6160"></path><path d="M536.810667 530.56c0 2.069333-0.042667 4.096-0.128 6.122667a973.696 973.696 0 0 1 0.192 15.210666c0 159.872-79.936 301.077333-202.005334 385.813334-44.138667 30.656-66.197333 45.973333-83.072 43.349333a41.941333 41.941333 0 0 1-32.725333-25.472c-6.656-15.701333 7.104-52.373333 34.645333-125.717333a425.749333 425.749333 0 0 0 27.093334-149.973334c0-16.064-0.896-31.936-2.624-47.552a149.333333 149.333333 0 1 1 258.624-101.76z m46.762666 130.282667c0 3.328 0.170667 6.613333 0.469334 9.856a25.813333 25.813333 0 0 0-0.426667 3.029333c-0.085333 1.152-0.085333 1.514667-0.085333 2.282667 0 113.664 56.832 214.058667 143.637333 274.304 31.36 21.781333 47.061333 32.682667 59.050667 30.826666a29.824 29.824 0 0 0 23.253333-18.133333c4.757333-11.157333-5.034667-37.226667-24.618667-89.386667a302.72 302.72 0 0 1-19.264-106.602666c0-11.434667 0.64-22.72 1.877334-33.813334a106.176 106.176 0 1 0-183.893334-72.362666z" fill="#BE975D" p-id="6161"></path></svg>