<?xml version="1.0" standalone="no"?><!DOCTYPE svg PUBLIC "-//W3C//DTD SVG 1.1//EN" "http://www.w3.org/Graphics/SVG/1.1/DTD/svg11.dtd"><svg t="1713873583025" class="icon" viewBox="0 0 1024 1024" version="1.1" xmlns="http://www.w3.org/2000/svg" p-id="6325" xmlns:xlink="http://www.w3.org/1999/xlink" width="40" height="40"><path d="M138.666667 149.312a32 32 0 1 0 0-64 32 32 0 0 0 0 64z m778.666666 19.968a32 32 0 1 1-64 0 32 32 0 0 1 64 0zM307.84 512a32 32 0 1 1-64 0 32 32 0 0 1 64 0z m452.330667 32a32 32 0 1 0 0-64 32 32 0 0 0 0 64zM524.373333 272.682667a32 32 0 1 1-64 0 32 32 0 0 1 64 0z" fill="#8D620F" p-id="6326"></path><path d="M245.333333 791.317333c102.101333 107.946667 253.696 165.802667 411.733334 141.802667 4.8-0.725333 9.536-1.514667 14.272-2.389333 2.261333-0.213333 4.544-0.533333 6.826666-0.853334a149.333333 149.333333 0 1 0-139.605333-240.213333l-11.562667 2.730667c-11.434667 2.709333-23.061333 4.970667-34.901333 6.784a425.749333 425.749333 0 0 1-152.32-4.309334c-76.650667-16.213333-114.986667-24.32-129.493333-15.36-12.8 7.893333-20.224 21.12-20.266667 36.16-0.085333 17.066667 18.389333 36.586667 55.317333 75.648z" fill="#BE975D" p-id="6327"></path></svg>