<?xml version="1.0" standalone="no"?><!DOCTYPE svg PUBLIC "-//W3C//DTD SVG 1.1//EN" "http://www.w3.org/Graphics/SVG/1.1/DTD/svg11.dtd"><svg t="1713873600964" class="icon" viewBox="0 0 1024 1024" version="1.1" xmlns="http://www.w3.org/2000/svg" p-id="6491" xmlns:xlink="http://www.w3.org/1999/xlink" width="40" height="40"><path d="M170.666667 85.333333a21.333333 21.333333 0 0 1 18.474666 10.666667L207.616 128a21.333333 21.333333 0 0 1-18.474667 32H152.192A21.333333 21.333333 0 0 1 133.717333 128l18.474667-32A21.333333 21.333333 0 0 1 170.666667 85.333333z m256 64a21.333333 21.333333 0 0 1 18.474666 10.666667l18.474667 32a21.333333 21.333333 0 0 1-18.474667 32h-36.949333a21.333333 21.333333 0 0 1-18.474667-32l18.474667-32A21.333333 21.333333 0 0 1 426.666667 149.333333z m445.141333-32a21.333333 21.333333 0 0 0-36.949333 0L816.384 149.333333a21.333333 21.333333 0 0 0 18.474667 32h36.949333a21.333333 21.333333 0 0 0 18.474667-32l-18.474667-32zM682.666667 224a32 32 0 1 1-64 0 32 32 0 0 1 64 0zM224 320a32 32 0 1 0 0-64 32 32 0 0 0 0 64z" fill="#8D620F" p-id="6492"></path><path d="M618.730667 469.333333a170.709333 170.709333 0 0 0 139.733333 167.893334A470.805333 470.805333 0 0 1 487.893333 907.754667c-16.341333 6.250667-14.677333 30.890667 2.837334 30.890666 259.2 0 469.333333-210.133333 469.333333-469.333333v-1.152a170.666667 170.666667 0 0 0-341.333333 1.152z m-166.506667 93.866667l-0.021333 2.048C451.093333 771.669333 283.413333 938.666667 76.736 938.666667c-15.68 0-17.237333-21.973333-2.709333-27.925334a376.682667 376.682667 0 0 0 209.024-214.933333 136.533333 136.533333 0 1 1 169.173333-132.608z" fill="#BE975D" p-id="6493"></path></svg>