<?xml version="1.0" standalone="no"?><!DOCTYPE svg PUBLIC "-//W3C//DTD SVG 1.1//EN" "http://www.w3.org/Graphics/SVG/1.1/DTD/svg11.dtd"><svg t="1713873617300" class="icon" viewBox="0 0 1024 1024" version="1.1" xmlns="http://www.w3.org/2000/svg" p-id="6657" xmlns:xlink="http://www.w3.org/1999/xlink" width="40" height="40"><path d="M144.298667 96a21.333333 21.333333 0 0 0-36.949334 0L88.874667 128a21.333333 21.333333 0 0 0 18.474666 32h36.949334A21.333333 21.333333 0 0 0 162.773333 128l-18.474666-32z m215.509333 128a21.333333 21.333333 0 0 0-36.949333 0l-18.474667 32a21.333333 21.333333 0 0 0 18.474667 32h36.949333a21.333333 21.333333 0 0 0 18.474667-32l-18.474667-32z m-207.616 234.666667a21.333333 21.333333 0 0 1 36.949333 0l18.474667 32a21.333333 21.333333 0 0 1-18.474667 32H152.192a21.333333 21.333333 0 0 1-18.474667-32l18.474667-32z m655.616-341.333334a21.333333 21.333333 0 0 0-36.949333 0L752.384 149.333333a21.333333 21.333333 0 0 0 18.474667 32h36.949333a21.333333 21.333333 0 0 0 18.474667-32l-18.474667-32zM533.333333 298.666667a21.333333 21.333333 0 0 1 18.474667 10.666666l18.474667 32a21.333333 21.333333 0 0 1-18.474667 32h-36.949333a21.333333 21.333333 0 0 1-18.474667-32l18.474667-32A21.333333 21.333333 0 0 1 533.333333 298.666667z m74.666667-42.666667a32 32 0 1 0 0-64 32 32 0 0 0 0 64z m352-10.666667a32 32 0 1 1-64 0 32 32 0 0 1 64 0zM437.333333 192a32 32 0 1 0 0-64 32 32 0 0 0 0 64zM384 394.666667a32 32 0 1 1-64 0 32 32 0 0 1 64 0zM181.333333 320a32 32 0 1 0 0-64 32 32 0 0 0 0 64z" fill="#8D620F" p-id="6658"></path><path d="M779.733333 637.226667A170.666667 170.666667 0 1 1 981.333333 469.333333c0 259.2-210.133333 469.333333-469.333333 469.333334-17.493333 0-19.2-24.64-2.837333-30.890667a470.805333 470.805333 0 0 0 270.592-270.570667z" fill="#BE975D" p-id="6659"></path><path d="M622.869333 562.432a136.533333 136.533333 0 1 0-169.130666 133.376 376.661333 376.661333 0 0 1-209.045334 214.933333c-14.506667 5.952-12.949333 27.925333 2.730667 27.925334 207.36 0 375.466667-168.106667 375.466667-375.466667v-0.768z" fill="#BE975D" p-id="6660"></path><path d="M335.722667 656.554667a102.4 102.4 0 1 0-136.469334 97.109333 282.517333 282.517333 0 0 1-147.84 159.722667C38.677333 919.210667 40.106667 938.666667 54.122667 938.666667c155.52 0 281.6-126.08 281.6-281.6v-0.512z" fill="#BE975D" p-id="6661"></path></svg>